<svg xmlns="http://www.w3.org/2000/svg" id="Layer_1" width="19" height="22.829" viewBox="0 0 19 22.829">
  <g id="automobile-with-wrench" transform="translate(-30.265)">
    <path id="Path_25655" data-name="Path 25655" d="M104.7,12.476a6,6,0,0,0,5.115-6.238c0-.614-.015-1.207-.066-1.767a5.289,5.289,0,0,0-.871-2.829C108.154.622,106.892,0,104.7,0s-3.456.622-4.177,1.641a5.287,5.287,0,0,0-.872,2.83c-.051.56-.065,1.153-.065,1.767A6,6,0,0,0,104.7,12.476Zm1.669-10.191-.373.941a4.227,4.227,0,0,0-2.594,0l-.373-.941A5.238,5.238,0,0,1,106.367,2.285Zm-6.023,3c.059.129.309.624.7.671.445.053,1.185-1.577,3.657-1.581s3.212,1.635,3.657,1.581c.387-.046.638-.542.7-.671.012.316.016.636.016.954a5.562,5.562,0,0,1-1.747,4.224,4.467,4.467,0,0,1-2.623,1.27,4.467,4.467,0,0,1-2.623-1.27,5.562,5.562,0,0,1-1.747-4.224C100.327,5.919,100.332,5.6,100.344,5.284Z" transform="translate(-64.933)" fill="#433415"/>
    <path id="Path_25656" data-name="Path 25656" d="M49.26,195.022c-.261-1.624-.8-3.715-1.877-4.458-.736-.508-3.305-1.88-4.4-2.466l-.019-.01a.359.359,0,0,0-.39.034,4.661,4.661,0,0,1-1.871.9.358.358,0,0,0-.257.223l-.679,1.79-.679-1.79a.358.358,0,0,0-.257-.223,4.66,4.66,0,0,1-1.871-.9.359.359,0,0,0-.39-.034c-1.084.579-3.684,1.98-4.418,2.474-1.241.836-1.784,3.862-1.88,4.461a.36.36,0,0,0,.016.177c.026.074.437,1.138,2.49,1.993a.4.4,0,1,0-.08-.763,1.017,1.017,0,0,1-.018-1,3,3,0,0,1,5.128-.233h3.918a3.006,3.006,0,0,1,2.491-1.332h0a3.006,3.006,0,0,1,2.634,1.556.918.918,0,0,0-.088,1.772c2.048-.855,2.458-1.916,2.484-1.99A.361.361,0,0,0,49.26,195.022Z" transform="translate(0 -176.149)" fill="#433415"/>
    <path id="Path_25657" data-name="Path 25657" d="M92.953,296.9h0l-1.888,0a3.566,3.566,0,0,1,0-1.654l1.887,0a.128.128,0,0,0,.112-.189,2.116,2.116,0,0,0-3.82.235H84.265a2.114,2.114,0,0,0-3.821-.229.127.127,0,0,0,.112.188h0l1.888,0a3.565,3.565,0,0,1,0,1.654l-1.887,0a.127.127,0,0,0-.111.189,2.117,2.117,0,0,0,1.855,1.1h0a2.116,2.116,0,0,0,1.962-1.332h4.977a2.119,2.119,0,0,0,1.964,1.332h0a2.118,2.118,0,0,0,1.855-1.1.127.127,0,0,0-.112-.188Z" transform="translate(-46.99 -275.365)" fill="#dfa32a"/>
  </g>
</svg>
