<svg  id="Layer_3" data-name="Group 10082" xmlns="http://www.w3.org/2000/svg" width="19.609" height="22" viewBox="0 0 19.609 22">
  <path id="clipboard" d="M16.107,22H3.5A3.305,3.305,0,0,1,0,18.945V4.278A3.305,3.305,0,0,1,3.5,1.222a.661.661,0,0,1,.7.611.661.661,0,0,1-.7.611A1.983,1.983,0,0,0,1.4,4.278V18.945a1.983,1.983,0,0,0,2.1,1.833H16.107a1.983,1.983,0,0,0,2.1-1.833V4.278a1.983,1.983,0,0,0-2.1-1.833.661.661,0,0,1-.7-.611.661.661,0,0,1,.7-.611,3.305,3.305,0,0,1,3.5,3.056V18.945A3.305,3.305,0,0,1,16.107,22ZM12.861,2.444a.612.612,0,0,1-.611-.611.612.612,0,0,0-.611-.611H7.971a.612.612,0,0,0-.611.611.611.611,0,0,1-1.222,0A1.835,1.835,0,0,1,7.971,0h3.668a1.835,1.835,0,0,1,1.833,1.833A.612.612,0,0,1,12.861,2.444Z" transform="translate(0 0)" fill="#433415"/>
  <path id="Path_25667" data-name="Path 25667" d="M1.041,3.63V19.537s1.85,1.779,6.733,1.5,10.639.942,10.813-2.477,0-13.709,0-13.709a13.865,13.865,0,0,0-.872-2.442c-.209-.1-15.1,0-15.1,0Z" fill="#433415" stroke="#433415" stroke-width="1"/>
  <path id="Path" d="M.713,1.425A.713.713,0,0,1,.713,0h9.976a.713.713,0,1,1,0,1.425Z" transform="translate(4.104 6.624)" fill="#fff"/>
  <path id="Path-2" data-name="Path" d="M.713,1.425A.713.713,0,0,1,.713,0h9.976a.713.713,0,1,1,0,1.425Z" transform="translate(4.104 10.899)" fill="#dfa32a"/>
  <path id="Path-3" data-name="Path" d="M.713,1.425A.713.713,0,0,1,.713,0H7.838a.713.713,0,0,1,0,1.425Z" transform="translate(4.104 15.174)" fill="#fff"/>
</svg>
