<svg xmlns="http://www.w3.org/2000/svg" width="48" height="43.999" viewBox="0 0 48 43.999">
  <g id="image-gallery" transform="translate(0 -2)">
    <g id="Group_12101" data-name="Group 12101" transform="translate(0 17.402)">
      <path id="Path_25691" data-name="Path 25691" d="M34.905,38.3a3.989,3.989,0,0,1-1.02-.132L2.959,29.885a4.036,4.036,0,0,1-2.828-4.9l3.9-14.544a1,1,0,0,1,1.932.516L2.065,25.5a2.03,2.03,0,0,0,1.42,2.458L34.4,36.233a1.991,1.991,0,0,0,2.434-1.408l1.562-5.788a1,1,0,0,1,1.932.52l-1.56,5.78A4,4,0,0,1,34.905,38.3Z" transform="translate(0 -9.701)" fill="#bfbf8f"/>
    </g>
    <g id="Group_12102" data-name="Group 12102" transform="translate(7.999 2)">
      <path id="Path_25692" data-name="Path 25692" d="M40,34H8a4,4,0,0,1-4-4V6A4,4,0,0,1,8,2H40a4,4,0,0,1,4,4V30A4,4,0,0,1,40,34ZM8,4A2,2,0,0,0,6,6V30a2,2,0,0,0,2,2H40a2,2,0,0,0,2-2V6a2,2,0,0,0-2-2Z" transform="translate(-4 -2)" fill="#bfbf8f"/>
    </g>
    <g id="Group_12103" data-name="Group 12103" transform="translate(13.999 8)">
      <path id="Path_25693" data-name="Path 25693" d="M11,13a4,4,0,1,1,4-4A4,4,0,0,1,11,13Zm0-6a2,2,0,1,0,2,2A2,2,0,0,0,11,7Z" transform="translate(-7 -5)" fill="#bfbf8f"/>
    </g>
    <g id="Group_12104" data-name="Group 12104" transform="translate(8.139 13.1)">
      <path id="Path_25694" data-name="Path 25694" d="M5.07,26.31A1,1,0,0,1,4.362,24.6l9.446-9.446a3.074,3.074,0,0,1,4.242,0l2.812,2.812,7.784-9.34A3,3,0,0,1,30.93,7.55h.022A3,3,0,0,1,33.23,8.6L43.69,20.8a1,1,0,1,1-1.518,1.3L31.712,9.9a.989.989,0,0,0-.76-.348,1.062,1.062,0,0,0-.768.36L21.7,20.092a1,1,0,0,1-.724.358.963.963,0,0,1-.752-.292l-3.586-3.586a1.027,1.027,0,0,0-1.414,0L5.776,26.018a1,1,0,0,1-.706.292Z" transform="translate(-4.07 -7.55)" fill="#bfbf8f"/>
    </g>
  </g>
</svg>
