<svg xmlns="http://www.w3.org/2000/svg" width="26" height="26" viewBox="0 0 26 26">
  <g id="Group_10513" data-name="Group 10513" transform="translate(0 -0.2)">
    <g id="Ellipse_339" data-name="Ellipse 339" transform="translate(0 0.2)" fill="none" stroke="#ffedca" stroke-width="5">
      <circle cx="13" cy="13" r="13" stroke="none"/>
      <circle cx="13" cy="13" r="10.5" fill="none"/>
    </g>
    <circle id="Ellipse_340" data-name="Ellipse 340" cx="10" cy="10" r="10" transform="translate(3 3.2)" fill="#dfa32a"/>
    <g id="Group_4" data-name="Group 4" transform="translate(13 6.81) rotate(45)">
      <g id="Group_3" data-name="Group 3">
        <path id="Path_2" data-name="Path 2" d="M144.816,140.3H141.8v-3.012a.753.753,0,1,0-1.506,0V140.3h-3.012a.753.753,0,1,0,0,1.506H140.3v3.012a.753.753,0,1,0,1.506,0V141.8h3.012a.753.753,0,1,0,0-1.506Z" transform="translate(-136.533 -136.533)" fill="#fff"/>
      </g>
    </g>
  </g>
</svg>
