<svg xmlns="http://www.w3.org/2000/svg" width="18.248" height="22" viewBox="0 0 18.248 22" id="Layer_4">
  <g id="money" transform="translate(-36.238 0)">
    <g id="Group_12087" data-name="Group 12087" transform="translate(36.238 0)">
      <g id="Group_12081" data-name="Group 12081" transform="translate(10.683 15.525)">
        <path id="Path_25669" data-name="Path 25669" d="M242.6,299.9l0,0h0Z" transform="translate(-242.604 -299.9)" fill="#433415"/>
      </g>
      <g id="Group_12083" data-name="Group 12083" transform="translate(10.685 15.51)">
        <path id="Path_25671" data-name="Path 25671" d="M242.655,299.619l-.008.014h0Z" transform="translate(-242.647 -299.619)" fill="#433415"/>
      </g>
      <g id="Group_12084" data-name="Group 12084" transform="translate(10.704 15.491)">
        <path id="Path_25672" data-name="Path 25672" d="M243,299.245Z" transform="translate(-243.004 -299.244)" fill="#433415"/>
      </g>
      <g id="Group_12085" data-name="Group 12085" transform="translate(0 0)">
        <path id="Path_25673" data-name="Path 25673" d="M46.515,4.787c1.674-1.406,2.792-4.573,2.1-4.712-.914-.184-2.9.623-3.86.766C43.4,1.005,41.915-.635,41.082.279c-.677.743.485,3.447,2.3,4.625C37.962,7.57,30.34,20.949,43.637,21.92,62.036,23.263,52.823,7.384,46.515,4.787Zm4.58,15.552c-.057.522-3.333-4.007-3.746-3.686a2.852,2.852,0,0,1-1.527.539v.576a.541.541,0,1,1-1.082,0v-.63c-.093-.018,2.814-.039,2.723-.064a2.657,2.657,0,0,1-1.324-.814,2.386,2.386,0,0,1-.408-.674c-.025-.064-.048-.13-.068-.2a1,1,0,0,1-.043-.183c-.011-.1-2.99-.212-2.941-.3a.546.546,0,0,1,.528-.289,61.374,61.374,0,0,1,3.466,5.369c.021.062.035.126.058.188s.051-4.879.083-4.822a1.379,1.379,0,0,0,.238.3c.191.184-2.565.3-2.311.375l1,2.859c-.5-.129-.009-5.295-.419-5.613a1.651,1.651,0,0,1-.479-.575c-.117-.241.835-.509.833-.775a1.846,1.846,0,0,1,.162-.784,1.912,1.912,0,0,1,.444-.609c.4-.367-5.072,4.428-4.541,4.353v-.6c0-.154,2.067-.3,2.183-.405a.546.546,0,0,1,.584-.086c.19.088-1.685.282-1.685.492v.6q.106.013.212.032c.522.094,4.032.31,4.413.686a2.065,2.065,0,0,1,.433.622,1.983,1.983,0,0,1,.076.2,1.2,1.2,0,0,1,.051.193.541.541,0,0,1-1.04.274c-.023-.059-.034-.122-.057-.181a.953.953,0,0,0-.088-.17,1.032,1.032,0,0,0-.256-.268,1.754,1.754,0,0,0-.743-.29v2.049a6.871,6.871,0,0,1,.924.274c.452.178,1.881.452,2.128.883-.038-.067-.076-.133,0,0s.039.069,0,0C49.073,19.531,51.137,19.945,51.095,20.339Z" transform="translate(-36.238 0)" fill="#433415"/>
        <circle id="Ellipse_425" data-name="Ellipse 425" cx="5" cy="5" r="5" transform="translate(3.75 10)" fill="#433415"/>
        <circle id="Ellipse_426" data-name="Ellipse 426" cx="2" cy="2" r="2" transform="translate(12.75 17)" fill="#433415"/>
      </g>
      <g id="Group_12086" data-name="Group 12086" transform="translate(10.669 15.539)">
        <path id="Path_25674" data-name="Path 25674" d="M242.345,300.169l-.008.014Z" transform="translate(-242.337 -300.169)" fill="#433415"/>
      </g>
      <path id="dollar-currency-symbol" d="M82,6.42a2,2,0,0,0-.872-1.741A5.219,5.219,0,0,0,79.6,4.034C78.493,3.7,78.172,3.524,78.172,3c0-.588.764-.8,1.418-.8a2.734,2.734,0,0,1,1.365.368l.675-1.045A3.866,3.866,0,0,0,79.975.976V0H78.73V1.044A2.031,2.031,0,0,0,76.927,3a1.868,1.868,0,0,0,.851,1.624,5.221,5.221,0,0,0,1.457.606c1.082.327,1.522.527,1.517,1.187v0c0,.554-.734.751-1.364.751a2.333,2.333,0,0,1-1.607-.648l-.9.855a3.47,3.47,0,0,0,1.852.974V9.367h1.245v-1C81.2,8.2,82,7.455,82,6.42Z" transform="translate(-70.313 9.316)" fill="#dfa32a"/>
    </g>
  </g>
</svg>
