<svg xmlns="http://www.w3.org/2000/svg" width="16.162" height="24.301" viewBox="0 0 16.162 24.301">
  <g id="Group_9295" data-name="Group 9295" transform="translate(0 -0.247)">
    <path id="Path_21586" data-name="Path 21586" d="M432.264,471.67c0,.36-.042,1.2-.048,1.267a7.579,7.579,0,0,1-2.229,4.714,27.268,27.268,0,0,0-3.31,3.167A16.5,16.5,0,0,0,424.3,487.8c-.045.284-.076.571-.113.856a25.39,25.39,0,0,0-1.15-4.269c-.7-2.938-2.31-4.324-4.462-6.519a8.164,8.164,0,0,1-2.291-4.039c-.077-.358-.125-.722-.186-1.084,0-.36.075-1.528.107-1.753a7.941,7.941,0,0,1,5.963-6.379c.48-.109.97-.173,1.456-.257.371,0,1.589.073,1.828.107a7.977,7.977,0,0,1,6.6,6.026C432.138,470.882,432.195,471.277,432.264,471.67Zm-8.1,4.736a4.2,4.2,0,1,0-4.3-4.21A4.258,4.258,0,0,0,424.163,476.406Z" transform="translate(-416.102 -464.112)" fill="#f7323c"/>
    <circle id="Ellipse_268" data-name="Ellipse 268" cx="7" cy="7" r="7" transform="translate(1.081 1.182)" fill="#ffebec"/>
    <g id="automobile-with-wrench" transform="translate(-26.307 3.227)">
      <path id="Path_25655" data-name="Path 25655" d="M101.8,5.415a2.6,2.6,0,0,0,2.22-2.708c0-.266-.006-.524-.028-.767a2.3,2.3,0,0,0-.378-1.228,2.664,2.664,0,0,0-3.627,0,2.3,2.3,0,0,0-.378,1.228c-.022.243-.028.5-.028.767A2.6,2.6,0,0,0,101.8,5.415Zm.725-4.423-.162.409a1.835,1.835,0,0,0-1.126,0l-.162-.409A2.274,2.274,0,0,1,102.528.992Zm-2.615,1.3c.026.056.134.271.3.291.193.023.514-.685,1.587-.686s1.394.71,1.587.686c.168-.02.277-.235.3-.291.005.137.007.276.007.414a2.414,2.414,0,0,1-.758,1.833,1.452,1.452,0,0,1-2.277,0,2.414,2.414,0,0,1-.758-1.833C99.906,2.569,99.908,2.431,99.913,2.293Z" transform="translate(-67.415)" fill="#f7323c"/>
      <path id="Path_25656" data-name="Path 25656" d="M38.51,191.074a3.165,3.165,0,0,0-.815-1.935c-.32-.22-1.435-.816-1.911-1.071l-.008,0a.156.156,0,0,0-.169.015,2.023,2.023,0,0,1-.812.392.156.156,0,0,0-.112.1l-.295.777-.295-.777a.155.155,0,0,0-.112-.1,2.023,2.023,0,0,1-.812-.392.156.156,0,0,0-.169-.015c-.471.251-1.6.859-1.918,1.074-.539.363-.774,1.677-.816,1.936a.156.156,0,0,0,.007.077c.011.032.19.494,1.081.865a.172.172,0,1,0-.035-.331.441.441,0,0,1-.008-.435,1.3,1.3,0,0,1,2.226-.1h1.7a1.3,1.3,0,0,1,1.081-.578h0a1.3,1.3,0,0,1,1.143.676.4.4,0,0,0-.038.769c.889-.371,1.067-.832,1.078-.864A.157.157,0,0,0,38.51,191.074Z" transform="translate(0 -182.881)" fill="#f7323c"/>
      <path id="Path_25657" data-name="Path 25657" d="M85.865,295.238h-.819a1.548,1.548,0,0,1,0-.718h.819a.055.055,0,0,0,.048-.082.919.919,0,0,0-1.658.1h-2.16a.918.918,0,0,0-1.659-.1.055.055,0,0,0,.049.082H81.3a1.548,1.548,0,0,1,0,.718h-.819a.055.055,0,0,0-.048.082.919.919,0,0,0,.805.476h0a.918.918,0,0,0,.852-.578h2.16a.92.92,0,0,0,.852.578h0a.919.919,0,0,0,.805-.479.055.055,0,0,0-.049-.082Z" transform="translate(-48.786 -285.889)" fill="#f7323c"/>
    </g>
  </g>
</svg>
