<svg xmlns="http://www.w3.org/2000/svg" width="16.162" height="24.301" viewBox="0 0 16.162 24.301">
  <g id="Group_9311" data-name="Group 9311" transform="translate(-416.06 -464.79)">
    <g id="Group_9295" data-name="Group 9295" transform="translate(416.06 464.543)">
      <path id="Path_21586" data-name="Path 21586" d="M432.264,471.67c0,.36-.042,1.2-.048,1.267a7.579,7.579,0,0,1-2.229,4.714,27.268,27.268,0,0,0-3.31,3.167A16.5,16.5,0,0,0,424.3,487.8c-.045.284-.076.571-.113.856a25.39,25.39,0,0,0-1.15-4.269c-.7-2.938-2.31-4.324-4.462-6.519a8.164,8.164,0,0,1-2.291-4.039c-.077-.358-.125-.722-.186-1.084,0-.36.075-1.528.107-1.753a7.941,7.941,0,0,1,5.963-6.379c.48-.109.97-.173,1.456-.257.371,0,1.589.073,1.828.107a7.977,7.977,0,0,1,6.6,6.026C432.138,470.882,432.195,471.277,432.264,471.67Zm-8.1,4.736a4.2,4.2,0,1,0-4.3-4.21A4.258,4.258,0,0,0,424.163,476.406Z" transform="translate(-416.102 -464.112)" fill="#dfa32a"/>
      <path id="Path_21591" data-name="Path 21591" d="M7,0A7,7,0,1,1,0,7,7,7,0,0,1,7,0Z" transform="translate(1.081 1.182)" fill="#fff2d9"/>
      <g id="Group_9312" data-name="Group 9312" transform="translate(4.662 4.29)">
        <path id="Path_21566" data-name="Path 21566" d="M457.212,1013a4.432,4.432,0,0,1,.594.147,1.946,1.946,0,0,1,1.223,1.348,1.966,1.966,0,0,1-.635,2.109,1.924,1.924,0,0,1-1.636.474,2.048,2.048,0,0,1-1.377-3.2,1.989,1.989,0,0,1,1.289-.842c.079-.016.159-.026.239-.039Z" transform="translate(-453.641 -1013)" fill="#dfa32a"/>
        <path id="Path_21567" data-name="Path 21567" d="M387.055,1255.706h-3.131c-.215,0-.3-.086-.288-.3a2.961,2.961,0,0,1,.663-1.806,2.867,2.867,0,0,1,1.638-1.033,3.346,3.346,0,0,1,.654-.077c.384-.009.77-.006,1.154.011a2.65,2.65,0,0,1,1.2.361,2.994,2.994,0,0,1,1.157,1.165,2.862,2.862,0,0,1,.346,1.045c.015.12.024.242.03.363a.233.233,0,0,1-.265.273Z" transform="translate(-383.636 -1247.922)" fill="#dfa32a"/>
      </g>
    </g>
  </g>
</svg>
