<svg id="Group_12181" data-name="Group 12181" xmlns="http://www.w3.org/2000/svg" width="16.495" height="20.3" viewBox="0 0 16.495 20.3">
  <path id="Path_25725" data-name="Path 25725" d="M33.308,18.438H29.695a1.564,1.564,0,0,1-1.562-1.562V3.125a1.564,1.564,0,0,1,1.563-1.562H39.3a1.564,1.564,0,0,1,1.563,1.563v6.8a.781.781,0,0,0,1.563,0v-6.8A3.129,3.129,0,0,0,39.3,0H29.695A3.129,3.129,0,0,0,26.57,3.125v13.75A3.129,3.129,0,0,0,29.695,20h3.613a.781.781,0,0,0,0-1.562Z" transform="translate(-26.57)" fill="#433415"/>
  <g id="checkmark" transform="translate(8.127 11.932)">
    <path id="Path_25730" data-name="Path 25730" d="M4.034,0A4.034,4.034,0,1,0,8.068,4.034,4.046,4.046,0,0,0,4.034,0Zm0,7.262A3.227,3.227,0,1,1,7.262,4.034,3.237,3.237,0,0,1,4.034,7.262Z" fill="#dfa32a" stroke="#dda12a" stroke-width="0.6"/>
    <g id="cancel" transform="translate(2.57 2.554)">
      <g id="Group_12178" data-name="Group 12178" transform="translate(0 0.016)">
        <path id="Path_25732" data-name="Path 25732" d="M1.786,1.48,2.881.385a.16.16,0,0,0,0-.226l-.1-.1a.161.161,0,0,0-.226,0L1.464,1.157.369.063a.16.16,0,0,0-.226,0l-.1.1a.16.16,0,0,0,0,.226L1.142,1.48.047,2.574a.161.161,0,0,0,0,.226l.1.1a.16.16,0,0,0,.226,0L1.464,1.8,2.559,2.9a.159.159,0,0,0,.113.047h0A.159.159,0,0,0,2.785,2.9l.1-.1a.161.161,0,0,0,0-.226Z" transform="translate(0 -0.016)" fill="#dfa32a" stroke="#dfa32a" stroke-width="0.2"/>
      </g>
    </g>
  </g>
  <g id="question-mark" transform="translate(-137.956 3.301)">
    <path id="Path_25743" data-name="Path 25743" d="M396.308,788.2h-.447a.571.571,0,0,0-.571.571v.618a.571.571,0,0,0,.571.571h.447a.571.571,0,0,0,.571-.571v-.618A.571.571,0,0,0,396.308,788.2Z" transform="translate(-250.275 -780.698)" fill="#433415"/>
    <path id="Path_25744" data-name="Path 25744" d="M142.879,2.72l.825.1a.571.571,0,0,0,.6-.365,1.76,1.76,0,0,1,.5-.736,1.683,1.683,0,0,1,1.122-.381,1.61,1.61,0,0,1,1.107.365,1.131,1.131,0,0,1,.41.877,1.091,1.091,0,0,1-.231.674,7.635,7.635,0,0,1-.92.818A3.878,3.878,0,0,0,145.266,5.2a2.6,2.6,0,0,0-.251,1.1.571.571,0,0,0,.571.595h.466a.572.572,0,0,0,.569-.523,1.442,1.442,0,0,1,.108-.483,2.682,2.682,0,0,1,.692-.743,7.184,7.184,0,0,0,1.407-1.411,2.021,2.021,0,0,0,.329-1.1,2.393,2.393,0,0,0-.895-1.841A3.5,3.5,0,0,0,145.854,0a3.381,3.381,0,0,0-2.323.78,2.692,2.692,0,0,0-.916,1.575A.308.308,0,0,0,142.879,2.72Z" transform="translate(0)" fill="#433415"/>
  </g>
</svg>
