<svg id="Group_12177" data-name="Group 12177" xmlns="http://www.w3.org/2000/svg" width="16.495" height="20.3" viewBox="0 0 16.495 20.3">
  <path id="Path_25723" data-name="Path 25723" d="M116.068,200.781a.781.781,0,0,0-.781-.781H107.24a.781.781,0,0,0,0,1.563h8.047A.781.781,0,0,0,116.068,200.781Z" transform="translate(-103.338 -192.188)" fill="#433415"/>
  <path id="Path_25724" data-name="Path 25724" d="M107.24,280a.781.781,0,0,0,0,1.563h4.887a.781.781,0,1,0,0-1.562Z" transform="translate(-103.338 -269.063)" fill="#433415"/>
  <path id="Path_25725" data-name="Path 25725" d="M33.308,18.438H29.695a1.564,1.564,0,0,1-1.562-1.562V3.125a1.564,1.564,0,0,1,1.563-1.562H39.3a1.564,1.564,0,0,1,1.563,1.563v6.8a.781.781,0,0,0,1.563,0v-6.8A3.129,3.129,0,0,0,39.3,0H29.695A3.129,3.129,0,0,0,26.57,3.125v13.75A3.129,3.129,0,0,0,29.695,20h3.613a.781.781,0,0,0,0-1.562Z" transform="translate(-26.57)" fill="#433415"/>
  <path id="Path_25727" data-name="Path 25727" d="M115.287,120H107.24a.781.781,0,0,0,0,1.563h8.047a.781.781,0,0,0,0-1.562Z" transform="translate(-103.338 -115.313)" fill="#433415"/>
  <g id="checkmark" transform="translate(8.127 11.932)">
    <path id="Path_25730" data-name="Path 25730" d="M4.034,0A4.034,4.034,0,1,0,8.068,4.034,4.046,4.046,0,0,0,4.034,0Zm0,7.262A3.227,3.227,0,1,1,7.262,4.034,3.237,3.237,0,0,1,4.034,7.262Z" fill="#dfa32a" stroke="#dda12a" stroke-width="0.6"/>
    <path id="Path_25731" data-name="Path 25731" d="M6.331,8.1l-.766-.766L5,7.9,6.331,9.268l2.7-2.7L8.469,6Z" transform="translate(-2.983 -3.579)" fill="#dfa32a" stroke="#dda12a" stroke-width="0.1"/>
  </g>
</svg>
