<svg xmlns="http://www.w3.org/2000/svg" width="20" height="18.293" viewBox="0 0 20 18.293">
  <g id="content_1_" data-name="content (1)" transform="translate(0 -0.5)">
    <path id="Path_25752" data-name="Path 25752" d="M417.775,4.588c0-.006,0-.011,0-.017s-.005-.032-.009-.048,0-.012,0-.018-.008-.03-.014-.045l-.007-.018c-.006-.015-.012-.03-.019-.044l0-.011L416.387,1.77a.586.586,0,0,0-1.045,0l-1.329,2.618,0,.011c-.007.014-.013.029-.019.044l-.007.018c-.005.015-.01.03-.014.045l0,.018c0,.016-.006.032-.009.048s0,.011,0,.016a.61.61,0,0,0,0,.065v13.5a1.564,1.564,0,0,0,1.567,1.556h.7a1.564,1.564,0,0,0,1.567-1.556V4.653A.573.573,0,0,0,417.775,4.588Zm-2.654.651h1.486V15.492h-1.486Zm1.118-1.172h-.749l.375-.737Zm-.027,14.466h-.7a.39.39,0,0,1-.4-.384V16.664h1.486v1.485A.39.39,0,0,1,416.212,18.533Zm0,0" transform="translate(-397.779 -0.912)" fill="#dfa32a"/>
    <path id="Path_25753" data-name="Path 25753" d="M12.443.5H2.515A2.518,2.518,0,0,0,0,3.016V16.277a2.518,2.518,0,0,0,2.516,2.515h9.927a2.518,2.518,0,0,0,2.516-2.515V3.016A2.518,2.518,0,0,0,12.443.5Zm1.344,15.777a1.345,1.345,0,0,1-1.344,1.344H2.515a1.345,1.345,0,0,1-1.344-1.344V3.016A1.345,1.345,0,0,1,2.515,1.672h9.927a1.345,1.345,0,0,1,1.344,1.344Zm0,0"/>
    <path id="Path_25754" data-name="Path 25754" d="M65.84,99.137h-3.5a.586.586,0,1,0,0,1.172h3.5a.586.586,0,1,0,0-1.172Zm0,0" transform="translate(-59.345 -94.784)"/>
    <path id="Path_25755" data-name="Path 25755" d="M65.84,159.141h-3.5a.586.586,0,0,0,0,1.172h3.5a.586.586,0,0,0,0-1.172Zm0,0" transform="translate(-59.345 -152.444)"/>
    <path id="Path_25756" data-name="Path 25756" d="M65.84,219.145h-3.5a.586.586,0,0,0,0,1.172h3.5a.586.586,0,1,0,0-1.172Zm0,0" transform="translate(-59.345 -210.104)"/>
    <path id="Path_25757" data-name="Path 25757" d="M65.84,279.148h-3.5a.586.586,0,0,0,0,1.172h3.5a.586.586,0,0,0,0-1.172Zm0,0" transform="translate(-59.345 -267.763)"/>
    <path id="Path_25758" data-name="Path 25758" d="M65.84,340.156h-3.5a.586.586,0,0,0,0,1.172h3.5a.586.586,0,0,0,0-1.172Zm0,0" transform="translate(-59.345 -326.388)"/>
    <path id="Path_25759" data-name="Path 25759" d="M205.74,99.137h-3.5a.586.586,0,0,0,0,1.172h3.5a.586.586,0,0,0,0-1.172Zm0,0" transform="translate(-193.78 -94.784)"/>
    <path id="Path_25760" data-name="Path 25760" d="M205.74,159.141h-3.5a.586.586,0,0,0,0,1.172h3.5a.586.586,0,0,0,0-1.172Zm0,0" transform="translate(-193.78 -152.444)"/>
    <path id="Path_25761" data-name="Path 25761" d="M203.926,340.156h-1.684a.586.586,0,0,0,0,1.172h1.684a.586.586,0,1,0,0-1.172Zm0,0" transform="translate(-193.779 -326.388)"/>
  </g>
</svg>
