<svg xmlns="http://www.w3.org/2000/svg" width="20.753" height="20.946" viewBox="0 0 20.753 20.946">
  <g id="hand" transform="translate(-0.16 0.598)">
    <path id="Path_25745" data-name="Path 25745" d="M219.392,330.861a.391.391,0,1,0-.553,0A.391.391,0,0,0,219.392,330.861Zm0,0" transform="translate(-209.696 -317.291)" fill="#433415" stroke="#433415" stroke-width="0.4"/>
    <path id="Path_25746" data-name="Path 25746" d="M188.449,4.3a4.3,4.3,0,1,0,4.3-4.3A4.3,4.3,0,0,0,188.449,4.3Zm7.813,0A3.516,3.516,0,1,1,192.746.781,3.52,3.52,0,0,1,196.262,4.3Zm0,0" transform="translate(-178.64 -0.298)" fill="#433415" stroke="#433415" stroke-width="0.6"/>
    <path id="Path_25747" data-name="Path 25747" d="M5,223.913a.391.391,0,0,0,.551,0l1.894-1.866a1.181,1.181,0,0,0,.278-1.212l.407-.393a1.165,1.165,0,0,1,.813-.329h5.193a3.5,3.5,0,0,0,2.452-1c.027-.026-.206.248,3.543-4.232a1.563,1.563,0,0,0-2.378-2.028l-2.305,2.369a1.57,1.57,0,0,0-1.215-.582H9.88a5.04,5.04,0,0,0-1.956-.391,4.833,4.833,0,0,0-4.405,2.5,1.167,1.167,0,0,0-1.045.324L.615,218.943a.391.391,0,0,0,0,.551Zm2.923-8.875a4.264,4.264,0,0,1,1.72.358.39.39,0,0,0,.157.033h4.436a.781.781,0,1,1,0,1.563H11.048a.391.391,0,1,0,0,.781h3.187a1.56,1.56,0,0,0,1.549-1.767c2.23-2.292,2.544-2.614,2.558-2.63a.781.781,0,1,1,1.193,1.01l-3.5,4.189a2.72,2.72,0,0,1-1.893.762H8.945a1.942,1.942,0,0,0-1.356.548l-.332.32-3.06-3.06a4.033,4.033,0,0,1,3.727-2.105Zm-4.9,2.592a.39.39,0,0,1,.484-.055c.068.041-.127-.136,3.383,3.37a.391.391,0,0,1,0,.551l-1.615,1.591-3.838-3.868Zm0,0" transform="translate(0 -204.023)" fill="#433415" stroke="#433415" stroke-width="0.6"/>
    <path id="Path_25748" data-name="Path 25748" d="M266.593,40.379v.458a1.172,1.172,0,0,0,.391,2.277.391.391,0,0,1,0,.781.707.707,0,0,1-.507-.3.391.391,0,1,0-.6.5,1.62,1.62,0,0,0,.715.509v.456a.391.391,0,0,0,.781,0v-.458a1.172,1.172,0,0,0-.391-2.277.391.391,0,0,1,0-.781.627.627,0,0,1,.422.2.391.391,0,0,0,.543-.561,1.509,1.509,0,0,0-.575-.36v-.455a.391.391,0,1,0-.781,0Zm0,0" transform="translate(-252.956 -38.724)" fill="#dfa32a"/>
    <g id="checkmark" transform="translate(0.501 0.935)">
      <path id="Path_25730" data-name="Path 25730" d="M4.034,0A4.034,4.034,0,1,0,8.068,4.034,4.046,4.046,0,0,0,4.034,0Zm0,7.262A3.227,3.227,0,1,1,7.262,4.034,3.237,3.237,0,0,1,4.034,7.262Z" fill="#433415" stroke="#433415" stroke-width="0.6"/>
      <g id="cancel" transform="translate(2.57 2.554)">
        <g id="Group_12178" data-name="Group 12178" transform="translate(0 0.016)">
          <path id="Path_25732" data-name="Path 25732" d="M1.786,1.48,2.881.385a.16.16,0,0,0,0-.226l-.1-.1a.161.161,0,0,0-.226,0L1.464,1.157.369.063a.16.16,0,0,0-.226,0l-.1.1a.16.16,0,0,0,0,.226L1.142,1.48.047,2.574a.161.161,0,0,0,0,.226l.1.1a.16.16,0,0,0,.226,0L1.464,1.8,2.559,2.9a.159.159,0,0,0,.113.047h0A.159.159,0,0,0,2.785,2.9l.1-.1a.161.161,0,0,0,0-.226Z" transform="translate(0 -0.016)" fill="#423414" stroke="#433415" stroke-width="0.2"/>
        </g>
      </g>
    </g>
  </g>
</svg>
