<svg xmlns="http://www.w3.org/2000/svg" width="20" height="17.333" viewBox="0 0 20 17.333">
  <g id="Layer_2" data-name="Layer 2" transform="translate(-1 -3)">
    <path id="Path_25650" data-name="Path 25650" d="M18.8,3H3.2A2.2,2.2,0,0,0,1,5.2V18.133a2.2,2.2,0,0,0,2.2,2.2H18.8a2.2,2.2,0,0,0,2.2-2.2V5.2A2.2,2.2,0,0,0,18.8,3Zm.867,15.133A.867.867,0,0,1,18.8,19H3.2a.867.867,0,0,1-.867-.867v-9.8H19.667ZM19.667,7H2.333V5.2A.867.867,0,0,1,3.2,4.333H18.8a.867.867,0,0,1,.867.867Z" fill="#433415"/>
    <circle id="Ellipse_415" data-name="Ellipse 415" cx="0.667" cy="0.667" r="0.667" transform="translate(3.667 5)" fill="#433415"/>
    <circle id="Ellipse_416" data-name="Ellipse 416" cx="0.667" cy="0.667" r="0.667" transform="translate(5.667 5)" fill="#433415"/>
    <circle id="Ellipse_417" data-name="Ellipse 417" cx="0.667" cy="0.667" r="0.667" transform="translate(7.667 5)" fill="#433415"/>
    <path id="home" d="M6.986,2.9h0L4.266.179a.614.614,0,0,0-.868,0L.681,2.9l0,0a.613.613,0,0,0,.408,1.046h.127v2a.719.719,0,0,0,.718.718H3a.2.2,0,0,0,.2-.2V4.9a.328.328,0,0,1,.328-.328h.627a.328.328,0,0,1,.328.328V6.47a.2.2,0,0,0,.2.2H5.733a.719.719,0,0,0,.718-.718v-2h.1A.614.614,0,0,0,6.986,2.9ZM6.71,3.49a.222.222,0,0,1-.158.065h-.3a.2.2,0,0,0-.2.2v2.2a.328.328,0,0,1-.328.328H4.865V4.9a.719.719,0,0,0-.718-.718H3.519A.719.719,0,0,0,2.8,4.9V6.275H1.932A.328.328,0,0,1,1.6,5.947v-2.2a.2.2,0,0,0-.2-.2h-.3a.223.223,0,0,1-.154-.381h0L3.675.455a.223.223,0,0,1,.315,0L6.709,3.174h0a.224.224,0,0,1,0,.315Zm0,0" transform="translate(7 10.334)" fill="#dfa32a" stroke="#dfa32a" stroke-width="0.4"/>
  </g>
</svg>
