<svg xmlns="http://www.w3.org/2000/svg" width="15.675" height="20" viewBox="0 0 15.675 20">
  <g id="Pin" transform="translate(-5.811 -3.001)">
    <path id="Path_25714" data-name="Path 25714" d="M20.608,7.218a7.692,7.692,0,0,0-6.086-4.174,8.742,8.742,0,0,0-1.745,0A7.7,7.7,0,0,0,6.69,7.218a8.313,8.313,0,0,0,1.139,9.149l5.225,6.353a.769.769,0,0,0,1.188,0l5.225-6.353A8.312,8.312,0,0,0,20.608,7.218ZM18.28,15.39,13.649,21.02,9.018,15.39a6.868,6.868,0,0,1-.967-7.454,6.179,6.179,0,0,1,4.882-3.362,7.047,7.047,0,0,1,.716-.035,6.949,6.949,0,0,1,.717.036,6.178,6.178,0,0,1,4.881,3.361,6.868,6.868,0,0,1-.967,7.454Z" transform="translate(0)" fill="#423314"/>
    <path id="Path_25715" data-name="Path 25715" d="M14.846,8a3.846,3.846,0,1,0,3.846,3.846A3.846,3.846,0,0,0,14.846,8Zm0,6.154a2.308,2.308,0,1,1,2.308-2.308,2.308,2.308,0,0,1-2.308,2.308Z" transform="translate(-1.197 -1.154)" fill="#dfa32a"/>
  </g>
</svg>
