<svg xmlns="http://www.w3.org/2000/svg" width="16.645" height="20" viewBox="0 0 16.645 20">
  <g id="automobile-with-wrench" transform="translate(-30.265)">
    <path id="Path_25705" data-name="Path 25705" d="M104.064,10.93a5.254,5.254,0,0,0,4.481-5.465c0-.538-.013-1.057-.057-1.548a4.633,4.633,0,0,0-.763-2.478C107.092.545,105.986,0,104.064,0s-3.028.545-3.66,1.438a4.632,4.632,0,0,0-.764,2.479c-.044.491-.057,1.01-.057,1.548A5.254,5.254,0,0,0,104.064,10.93ZM105.526,2l-.326.825a3.7,3.7,0,0,0-2.272,0L102.6,2A4.589,4.589,0,0,1,105.526,2ZM100.25,4.629c.052.113.271.547.61.588.39.047,1.038-1.382,3.2-1.385s2.814,1.432,3.2,1.385c.339-.041.559-.475.61-.588.01.277.014.557.014.836a4.873,4.873,0,0,1-1.53,3.7,2.93,2.93,0,0,1-4.6,0,4.873,4.873,0,0,1-1.53-3.7C100.235,5.186,100.239,4.906,100.25,4.629Z" transform="translate(-65.477)" fill="#423314"/>
    <path id="Path_25706" data-name="Path 25706" d="M46.906,194.157c-.229-1.422-.7-3.255-1.644-3.906-.645-.445-2.9-1.647-3.857-2.161l-.016-.009a.314.314,0,0,0-.342.03,4.083,4.083,0,0,1-1.639.792.314.314,0,0,0-.225.2l-.595,1.568-.595-1.568a.314.314,0,0,0-.225-.2,4.083,4.083,0,0,1-1.639-.792.314.314,0,0,0-.342-.03c-.95.507-3.228,1.734-3.87,2.167-1.087.733-1.563,3.384-1.647,3.908a.315.315,0,0,0,.014.155c.023.065.383,1,2.181,1.746a.348.348,0,1,0-.07-.669.891.891,0,0,1-.016-.879,2.628,2.628,0,0,1,4.493-.2H40.3a2.633,2.633,0,0,1,2.182-1.167h0a2.633,2.633,0,0,1,2.308,1.364.8.8,0,0,0-.077,1.553c1.794-.749,2.153-1.678,2.176-1.743A.316.316,0,0,0,46.906,194.157Z" transform="translate(0 -177.623)" fill="#423314"/>
    <path id="Path_25707" data-name="Path 25707" d="M91.4,296.538h0l-1.654,0a3.124,3.124,0,0,1,0-1.449l1.653,0a.112.112,0,0,0,.1-.166,1.854,1.854,0,0,0-3.347.206h-4.36a1.852,1.852,0,0,0-3.348-.2.111.111,0,0,0,.1.165h0l1.654,0a3.123,3.123,0,0,1,0,1.449l-1.653,0a.112.112,0,0,0-.1.166,1.855,1.855,0,0,0,1.625.961h0a1.854,1.854,0,0,0,1.719-1.167h4.36a1.857,1.857,0,0,0,1.72,1.167h0A1.855,1.855,0,0,0,91.5,296.7a.112.112,0,0,0-.1-.165Z" transform="translate(-47.383 -277.669)" fill="#dfa32a"/>
  </g>
</svg>
