<svg xmlns="http://www.w3.org/2000/svg" width="19.6" height="14.85" viewBox="0 0 19.6 14.85">
  <g id="Group_10198" data-name="Group 10198" transform="translate(0.3 0.3)">
    <path id="Path_22550" data-name="Path 22550" d="M18.6,69.146a.4.4,0,0,0,.4-.4V65.583A1.585,1.585,0,0,0,17.417,64H1.583A1.585,1.585,0,0,0,0,65.583V68.75a.4.4,0,0,0,.4.4A1.979,1.979,0,1,1,.4,73.1a.4.4,0,0,0-.4.4v3.167A1.585,1.585,0,0,0,1.583,78.25H17.417A1.585,1.585,0,0,0,19,76.667V73.5a.4.4,0,0,0-.4-.4,1.979,1.979,0,1,1,0-3.958Zm-2.771,1.979a2.775,2.775,0,0,0,2.375,2.743v2.8a.793.793,0,0,1-.792.792H1.583a.793.793,0,0,1-.792-.792v-2.8a2.771,2.771,0,0,0,0-5.485v-2.8a.793.793,0,0,1,.792-.792H17.417a.793.793,0,0,1,.792.792v2.8A2.775,2.775,0,0,0,15.833,71.125Z" transform="translate(0 -64)" fill="#433415" stroke="#433415" stroke-width="0.6"/>
    <path id="Path_22551" data-name="Path 22551" d="M128.336,104a.335.335,0,0,0-.336.336v.755a.336.336,0,1,0,.671,0v-.755A.335.335,0,0,0,128.336,104Z" transform="translate(-123.219 -102.742)" fill="#433415" stroke="#433415" stroke-width="0.6"/>
    <path id="Path_22552" data-name="Path 22552" d="M128.336,192a.335.335,0,0,0-.336.336v.671a.336.336,0,0,0,.671,0v-.671A.335.335,0,0,0,128.336,192Z" transform="translate(-123.219 -187.16)" fill="#433415" stroke="#433415" stroke-width="0.6"/>
    <path id="Path_22553" data-name="Path 22553" d="M128.336,277.333a.335.335,0,0,0-.336.336v.671a.336.336,0,1,0,.671,0v-.671A.335.335,0,0,0,128.336,277.333Z" transform="translate(-123.219 -269.266)" fill="#433415" stroke="#433415" stroke-width="0.6"/>
    <path id="Path_22554" data-name="Path 22554" d="M128.336,362.667A.335.335,0,0,0,128,363v.671a.336.336,0,0,0,.671,0V363A.335.335,0,0,0,128.336,362.667Z" transform="translate(-123.219 -351.101)" fill="#433415" stroke="#433415" stroke-width="0.6"/>
    <path id="Path_22555" data-name="Path 22555" d="M217.878,149.4a.289.289,0,0,0-.465.123l-4.027,7.993a.538.538,0,0,0,.093.616.281.281,0,0,0,.186.075.323.323,0,0,0,.28-.2l4.027-7.993A.538.538,0,0,0,217.878,149.4Z" transform="translate(-204.917 -146.645)" fill="#dea22a" stroke="#dea22a" stroke-width="0.6"/>
    <path id="Path_22556" data-name="Path 22556" d="M194.684,151.012a1.376,1.376,0,1,0-1.342,1.678A1.54,1.54,0,0,0,194.684,151.012Zm-2.013,0c0-.546.307-1.007.671-1.007s.671.461.671,1.007-.307,1.007-.671,1.007S192.671,151.557,192.671,151.012Z" transform="translate(-184.658 -145.982)" fill="#dea22a" stroke="#dea22a" stroke-width="0.6"/>
    <path id="Path_22557" data-name="Path 22557" d="M300.008,256a1.72,1.72,0,1,0,1.342,1.678A1.54,1.54,0,0,0,300.008,256Zm0,2.684c-.364,0-.671-.461-.671-1.007s.307-1.007.671-1.007.671.461.671,1.007S300.372,258.684,300.008,258.684Z" transform="translate(-287.245 -248.458)" fill="#dea22a" stroke="#dea22a" stroke-width="0.6"/>
  </g>
</svg>
