<svg xmlns="http://www.w3.org/2000/svg" width="19.116" height="20.898" viewBox="0 0 19.116 20.898">
  <g id="Group_12154" data-name="Group 12154" transform="translate(-43 -105)">
    <g id="avatar" transform="translate(3.615 105)">
      <g id="Group_12153" data-name="Group 12153" transform="translate(39.385)">
        <path id="Path_25703" data-name="Path 25703" d="M50.862,9.274a5.128,5.128,0,1,0-6.03,0,8.475,8.475,0,0,0-5.446,7.906A2.824,2.824,0,0,0,42.206,20H53.488a2.824,2.824,0,0,0,2.821-2.821A8.475,8.475,0,0,0,50.862,9.274Zm-6.6-4.145a3.59,3.59,0,1,1,3.59,3.59A3.594,3.594,0,0,1,44.257,5.128Zm9.231,13.333H42.206a1.283,1.283,0,0,1-1.282-1.282,6.923,6.923,0,1,1,13.846,0A1.284,1.284,0,0,1,53.488,18.462Z" transform="translate(-39.385 0)" fill="#423314"/>
      </g>
    </g>
    <g id="Layer_2" data-name="Layer 2" transform="translate(51.884 115.298)">
      <g id="Path_25704" data-name="Path 25704" transform="translate(0 0)" fill="#dfa32a">
        <path d="M 3.878785848617554 10.09910869598389 L 3.875135898590088 10.09905910491943 C 3.76244592666626 10.09765911102295 3.651305913925171 10.0782585144043 3.544825792312622 10.04137897491455 L 3.540375947952271 10.03982925415039 L 3.535945892333984 10.03820896148682 C 3.047242164611816 9.85857105255127 2.596197128295898 9.599120140075684 2.195253610610962 9.26700496673584 C 1.840202331542969 8.978579521179199 1.726194500923157 8.48786449432373 1.918125867843628 8.072268486022949 C 1.994615912437439 7.905648708343506 1.985505938529968 7.710168838500977 1.893295884132385 7.550388813018799 C 1.80107593536377 7.390608787536621 1.63636589050293 7.284928798675537 1.452695965766907 7.267688751220703 L 1.449405908584595 7.267378807067871 L 1.446115970611572 7.26702880859375 C 0.9944559335708618 7.218608856201172 0.6293659210205078 6.871438980102539 0.5582858920097351 6.422768592834473 C 0.519335925579071 6.186148643493652 0.499555915594101 5.941568851470947 0.4999859035015106 5.698778629302979 C 0.4999859035015106 5.409029006958008 0.5291659235954285 5.117208957672119 0.5867159366607666 4.832298755645752 C 0.6701059341430664 4.398818969726562 1.024715900421143 4.072678565979004 1.468225955963135 4.025259017944336 L 1.471735954284668 4.02488899230957 L 1.475255966186523 4.024559020996094 C 1.654375910758972 4.007968902587891 1.816995859146118 3.90622878074646 1.910255908966064 3.752418756484985 C 2.003535985946655 3.598588705062866 2.018545866012573 3.407368898391724 1.950435876846313 3.240868806838989 L 1.948655962944031 3.236508846282959 L 1.946955919265747 3.23210883140564 C 1.78605592250824 2.816608667373657 1.912675857543945 2.351618766784668 2.262015819549561 2.075048685073853 C 2.643085956573486 1.772828817367554 3.068166017532349 1.534368753433228 3.525115966796875 1.366558790206909 C 3.63606595993042 1.325328826904297 3.754086017608643 1.304098844528198 3.874145984649658 1.304098844528198 C 4.182395935058594 1.304098844528198 4.469465732574463 1.442248821258545 4.661756038665771 1.68311882019043 L 4.663325786590576 1.685078740119934 L 4.664865970611572 1.68704879283905 C 4.774205684661865 1.826858758926392 4.938715934753418 1.90704882144928 5.11620569229126 1.90704882144928 C 5.29369592666626 1.90704882144928 5.458195686340332 1.826868772506714 5.567535877227783 1.687058806419373 L 5.569076061248779 1.685078740119934 L 5.570645809173584 1.68311882019043 C 5.762936115264893 1.442248821258545 6.050005912780762 1.304098844528198 6.358255863189697 1.304098844528198 C 6.478305816650391 1.304098844528198 6.596335887908936 1.325328826904297 6.709045886993408 1.36720883846283 C 7.203005790710449 1.548618793487549 7.659425735473633 1.81312882900238 8.063885688781738 2.152748823165894 C 8.392416000366211 2.423828840255737 8.513126373291016 2.878158807754517 8.360945701599121 3.280558824539185 C 8.29533576965332 3.449358701705933 8.309636116027832 3.631098747253418 8.398506164550781 3.783538818359375 C 8.48736572265625 3.935958862304688 8.638485908508301 4.037928581237793 8.813096046447754 4.063288688659668 C 9.240386009216309 4.12501859664917 9.57917594909668 4.452268600463867 9.655755996704102 4.877548694610596 C 9.706356048583984 5.144648551940918 9.732425689697266 5.422738552093506 9.732425689697266 5.699658870697021 L 9.732425689697266 5.70331859588623 L 9.732376098632812 5.706968784332275 C 9.728567123413086 5.967169284820557 9.701826095581055 6.228624820709229 9.652884483337402 6.48414945602417 C 9.576330184936523 6.916131973266602 9.233776092529297 7.246174335479736 8.798726081848145 7.306328773498535 L 8.794156074523926 7.306958675384521 L 8.789566040039062 7.307508945465088 C 8.612635612487793 7.328648567199707 8.45357608795166 7.433259010314941 8.364106178283691 7.587348937988281 C 8.274616241455078 7.741448879241943 8.262585639953613 7.93143892288208 8.331926345825195 8.095588684082031 L 8.333946228027344 8.10037899017334 L 8.335875511169434 8.105218887329102 C 8.498195648193359 8.512989044189453 8.379996299743652 8.974848747253418 8.041735649108887 9.254508972167969 C 7.673105716705322 9.561569213867188 7.258945941925049 9.809039115905762 6.8121657371521 9.988839149475098 C 6.691926002502441 10.03696918487549 6.566335678100586 10.06119918823242 6.438005924224854 10.06119918823242 C 6.121766090393066 10.06119918823242 5.820295810699463 9.909738540649414 5.631576061248779 9.656039237976074 C 5.523665904998779 9.511009216308594 5.35127592086792 9.42426872253418 5.170455932617188 9.424038887023926 C 4.983255863189697 9.424038887023926 4.810045719146729 9.515238761901855 4.705195903778076 9.667988777160645 L 4.703445911407471 9.670538902282715 L 4.701665878295898 9.673069000244141 C 4.514175891876221 9.939118385314941 4.207925796508789 10.09837913513184 3.88243579864502 10.09909915924072 L 3.878785848617554 10.09910869598389 Z M 5.11620569229126 4.827588558197021 C 4.635345935821533 4.827588558197021 4.244135856628418 5.218798637390137 4.244135856628418 5.699658870697021 C 4.244135856628418 6.18052864074707 4.635345935821533 6.571738719940186 5.11620569229126 6.571738719940186 C 5.597065925598145 6.571738719940186 5.98827600479126 6.18052864074707 5.98827600479126 5.699658870697021 C 5.98827600479126 5.218798637390137 5.597065925598145 4.827588558197021 5.11620569229126 4.827588558197021 Z" stroke="none"/>
        <path d="M 6.358251571655273 1.804100036621094 C 6.206916809082031 1.804099082946777 6.059732913970947 1.871891021728516 5.961395740509033 1.995068550109863 C 5.758045673370361 2.255098342895508 5.446305751800537 2.407049179077148 5.11620569229126 2.407049179077148 C 4.786096096038818 2.407049179077148 4.474365711212158 2.255098342895508 4.271006107330322 1.995068550109863 C 4.134245872497559 1.823759078979492 3.902966976165771 1.759567260742188 3.697475910186768 1.835908889770508 C 3.291255950927734 1.985088348388672 2.911446094512939 2.198148727416992 2.572375774383545 2.467059135437012 C 2.396945953369141 2.605948448181152 2.33241605758667 2.842898368835449 2.413216114044189 3.051558494567871 C 2.5416259765625 3.365458488464355 2.513656139373779 3.721648693084717 2.33780574798584 4.011648654937744 C 2.161966323852539 4.301658630371094 1.859075546264648 4.491148948669434 1.52137565612793 4.5224289894104 C 1.299406051635742 4.546158790588379 1.118995666503906 4.712098598480225 1.076815605163574 4.931298732757568 C 1.025726318359375 5.184228897094727 0.9999856948852539 5.441628932952881 0.9999856948852539 5.699658870697021 C 0.9996061325073242 5.915688991546631 1.017045974731445 6.131378650665283 1.052125930786133 6.344538688659668 C 1.088015556335449 6.571088790893555 1.271355628967285 6.745428562164307 1.499416351318359 6.76987886428833 C 1.844756126403809 6.802289009094238 2.152965545654297 7.000048637390137 2.326345920562744 7.300458908081055 C 2.499725818634033 7.600868701934814 2.51676607131958 7.966678619384766 2.372056007385254 8.281908988952637 C 2.276035785675049 8.489818572998047 2.333715915679932 8.73638916015625 2.512005805969238 8.880128860473633 C 2.868775844573975 9.176058769226074 3.273396015167236 9.408988952636719 3.708456039428711 9.56890869140625 C 3.764095783233643 9.588178634643555 3.822465896606445 9.598368644714355 3.881335735321045 9.599099159240723 C 4.045145988464355 9.598738670349121 4.198596000671387 9.518939018249512 4.292955875396729 9.385048866271973 C 4.491525650024414 9.095738410949707 4.820375919342041 8.923152923583984 5.171085834503174 8.924038887023926 C 5.510635852813721 8.924468994140625 5.830055713653564 9.085188865661621 6.032745838165283 9.357608795166016 C 6.169475555419922 9.541408538818359 6.412805557250977 9.610129356384277 6.625485897064209 9.524998664855957 C 7.023295879364014 9.364898681640625 7.393655776977539 9.143609046936035 7.723145961761475 8.869148254394531 C 7.892955780029297 8.728758811950684 7.952816009521484 8.494848251342773 7.871325969696045 8.290138244628906 C 7.740475654602051 7.980348587036133 7.76283597946167 7.627079010009766 7.931715965270996 7.336268901824951 C 8.1005859375 7.045458793640137 8.396326065063477 6.85093879699707 8.730245590209961 6.811038970947266 C 8.949396133422852 6.780738830566406 9.123696327209473 6.61198902130127 9.161075592041016 6.393929004669189 C 9.205145835876465 6.165048599243164 9.229016304016113 5.93272876739502 9.232425689697266 5.699658870697021 C 9.232425689697266 5.452978610992432 9.209405899047852 5.207688808441162 9.163665771484375 4.966148853302002 C 9.12535572052002 4.753378868103027 8.955185890197754 4.589008808135986 8.741215705871582 4.558098793029785 C 8.416835784912109 4.510978698730469 8.131646156311035 4.318538665771484 7.966546058654785 4.035368919372559 C 7.801455974578857 3.752188682556152 7.77448558807373 3.409198760986328 7.893276214599609 3.10369873046875 C 7.969705581665039 2.901568412780762 7.909035682678223 2.673198699951172 7.742345809936523 2.535658836364746 C 7.383425712585449 2.234269142150879 6.974875926971436 1.997488975524902 6.534925937652588 1.835908889770508 C 6.477181911468506 1.814456939697266 6.417397499084473 1.80410099029541 6.358251571655273 1.804100036621094 M 5.11620569229126 7.071738719940186 C 4.358426094055176 7.071738719940186 3.744135856628418 6.457438945770264 3.744135856628418 5.699658870697021 C 3.744135856628418 4.941888809204102 4.358426094055176 4.327588558197021 5.11620569229126 4.327588558197021 C 5.87397575378418 4.327588558197021 6.48827600479126 4.941888809204102 6.48827600479126 5.699658870697021 C 6.48827600479126 6.457438945770264 5.87397575378418 7.071738719940186 5.11620569229126 7.071738719940186 M 3.874145984649658 0.8040990829467773 C 4.335305690765381 0.8040990829467773 4.764805793762207 1.010788917541504 5.052515983581543 1.371169090270996 L 5.0587158203125 1.3790283203125 C 5.086570262908936 1.414641380310059 5.145819187164307 1.414636611938477 5.173666000366211 1.379048347473145 L 5.179895877838135 1.371158599853516 C 5.467606067657471 1.010788917541504 5.897095680236816 0.8040990829467773 6.358255863189697 0.8040990829467773 C 6.537936210632324 0.8040990829467773 6.714546203613281 0.8358583450317383 6.883165836334229 0.89849853515625 C 7.428327560424805 1.098712921142578 7.93359375 1.391210556030273 8.381546020507812 1.76661205291748 C 8.876420021057129 2.176888465881348 9.056088447570801 2.855862617492676 8.828645706176758 3.45737886428833 L 8.825296401977539 3.466108798980713 C 8.816885948181152 3.487748622894287 8.818765640258789 3.511658668518066 8.830455780029297 3.531718730926514 C 8.84212589263916 3.551738739013672 8.862006187438965 3.565148830413818 8.884965896606445 3.568488597869873 C 9.522940635681152 3.660645484924316 10.0294132232666 4.147999286651611 10.14658737182617 4.782105922698975 C 10.20354747772217 5.083593845367432 10.23242568969727 5.392275810241699 10.23242568969727 5.699658870697021 L 10.23231601715088 5.714288711547852 C 10.22810649871826 6.002397060394287 10.19858741760254 6.291916370391846 10.14458560943604 6.574909687042236 C 10.02883911132812 7.219548225402832 9.516965866088867 7.711775779724121 8.867205619812012 7.801618576049805 L 8.848896026611328 7.80397891998291 C 8.827095985412598 7.806578636169434 8.80750560760498 7.819458961486816 8.796485900878906 7.838428497314453 C 8.785455703735352 7.857428550720215 8.78398609161377 7.880818843841553 8.792526245117188 7.901039123535156 L 8.800415992736816 7.920289039611816 C 9.043286323547363 8.530399322509766 8.866425514221191 9.221439361572266 8.360325813293457 9.639859199523926 C 7.953035831451416 9.979138374328613 7.494015693664551 10.25340843200684 6.998835563659668 10.4526891708374 C 6.818415641784668 10.52491855621338 6.630295753479004 10.56119918823242 6.438005924224854 10.56119918823242 C 5.964456081390381 10.56119918823242 5.513015747070312 10.33438873291016 5.230395793914795 9.954468727111816 C 5.203359603881836 9.91811466217041 5.141663074493408 9.915650367736816 5.117425918579102 9.950948715209961 L 5.110355854034424 9.961118698120117 C 4.829576015472412 10.35952854156494 4.370945930480957 10.59802913665771 3.883535861968994 10.59909915924072 L 3.876235961914062 10.59910869598389 L 3.868936061859131 10.59901905059814 C 3.702536106109619 10.59695911407471 3.538435935974121 10.56829833984375 3.381196022033691 10.51383876800537 L 3.36344575881958 10.50750923156738 C 2.821880340576172 10.30843544006348 2.321982860565186 10.02098369598389 1.877562522888184 9.653110504150391 C 1.346806526184082 9.220119476318359 1.176689147949219 8.485177993774414 1.46419620513916 7.862628936767578 C 1.472716331481934 7.84406852722168 1.471595764160156 7.819998741149902 1.460246086120605 7.800328731536865 C 1.448885917663574 7.780648708343506 1.428595542907715 7.76762866973877 1.405976295471191 7.765508651733398 L 1.392815589904785 7.76417875289917 C 0.7190160751342773 7.691941261291504 0.173980712890625 7.175294399261475 0.06538486480712891 6.506860733032227 C 0.02151012420654297 6.240246295928955 -0.000484466552734375 5.968082427978516 -1.430511474609375e-05 5.697898864746094 C -1.430511474609375e-05 5.376959323883057 0.03227329254150391 5.052957534790039 0.09595870971679688 4.736569881439209 C 0.2240495681762695 4.084129810333252 0.7534503936767578 3.598831176757812 1.41507625579834 3.528098583221436 L 1.429145812988281 3.526688575744629 C 1.45119571685791 3.524648666381836 1.471225738525391 3.512118816375732 1.482706069946289 3.493178844451904 C 1.494205474853516 3.474218845367432 1.496055603027344 3.450678825378418 1.487666130065918 3.430178642272949 L 1.480686187744141 3.41265869140625 C 1.240176200866699 2.791559219360352 1.429446220397949 2.096468925476074 1.951656341552734 1.683029174804688 C 2.374145984649658 1.347958564758301 2.845766067504883 1.083388328552246 3.35274600982666 0.8972091674804688 C 3.517856121063232 0.8358583450317383 3.694466114044189 0.8040990829467773 3.874145984649658 0.8040990829467773 Z M 5.11620569229126 6.071738719940186 C 5.321365833282471 6.071738719940186 5.48827600479126 5.904828548431396 5.48827600479126 5.699658870697021 C 5.48827600479126 5.494498729705811 5.321365833282471 5.327588558197021 5.11620569229126 5.327588558197021 C 4.911046028137207 5.327588558197021 4.744135856628418 5.494498729705811 4.744135856628418 5.699658870697021 C 4.744135856628418 5.904828548431396 4.911046028137207 6.071738719940186 5.11620569229126 6.071738719940186 Z" stroke="none" fill="#fff"/>
      </g>
    </g>
  </g>
</svg>
