<svg xmlns="http://www.w3.org/2000/svg" width="16.729" height="20" viewBox="0 0 16.729 20">
  <g id="Group_12185" data-name="Group 12185" transform="translate(-43.164 -105)">
    <path id="notification" d="M58.487,16.317l-1.354-1.923a3.37,3.37,0,0,1-.643-2.029V8.316A6.238,6.238,0,0,0,51.8,2.291a1.658,1.658,0,0,0,.119-.618,1.679,1.679,0,0,0-3.358,0,1.658,1.658,0,0,0,.119.618,6.238,6.238,0,0,0-4.694,6.025v4.049a3.37,3.37,0,0,1-.643,2.029l-1.354,1.923a.625.625,0,0,0,.511.985h5.436a2.334,2.334,0,1,0,4.607,0h5.436a.625.625,0,0,0,.511-.985ZM49.808,1.673a.429.429,0,1,1,.429.423A.426.426,0,0,1,49.808,1.673Zm1.513,16a1.084,1.084,0,0,1-2.167,0,1.061,1.061,0,0,1,.068-.374h2.031A1.061,1.061,0,0,1,51.32,17.676ZM43.7,16.052l.66-.938a4.625,4.625,0,0,0,.871-2.749V8.316a5,5,0,0,1,10.007,0v4.049a4.625,4.625,0,0,0,.871,2.749l.66.938ZM50.546,5a.625.625,0,0,1-.564.68,2.647,2.647,0,0,0-2.425,2.635V10.4a.625.625,0,1,1-1.25,0V8.316a3.865,3.865,0,0,1,1.038-2.639,3.937,3.937,0,0,1,2.521-1.241.625.625,0,0,1,.68.564Z" transform="translate(1.292 105)" fill="#433415"/>
    <g id="Ellipse_427" data-name="Ellipse 427" transform="translate(52.393 107.5)" fill="#fff" stroke="#dfa32a" stroke-width="1.5">
      <circle cx="3.75" cy="3.75" r="3.75" stroke="none"/>
      <circle cx="3.75" cy="3.75" r="3" fill="none"/>
    </g>
  </g>
</svg>
