<svg xmlns="http://www.w3.org/2000/svg" width="19.4" height="19.4" viewBox="0 0 19.4 19.4">
  <g id="dollar" transform="translate(0.2 0.2)">
    <path id="Path_25741" data-name="Path 25741" d="M9.5,19A9.5,9.5,0,0,1,2.782,2.782,9.5,9.5,0,0,1,16.218,16.218,9.438,9.438,0,0,1,9.5,19Zm0-17.812A8.312,8.312,0,1,0,17.812,9.5,8.322,8.322,0,0,0,9.5,1.187Z" transform="translate(0 0)" fill="#433415" stroke="#433415" stroke-width="0.4"/>
    <path id="Path_25742" data-name="Path 25742" d="M186.672,101.344a1.484,1.484,0,1,1,1.484-1.484.594.594,0,0,0,1.188,0,2.676,2.676,0,0,0-2.078-2.6v-.661a.594.594,0,0,0-1.187,0v.661a2.672,2.672,0,0,0,.594,5.276,1.484,1.484,0,1,1-1.484,1.484.594.594,0,0,0-1.187,0,2.676,2.676,0,0,0,2.078,2.6v.661a.594.594,0,1,0,1.188,0v-.661a2.672,2.672,0,0,0-.594-5.276Z" transform="translate(-177.172 -92.438)" fill="#dfa32a" stroke="#dfa32a" stroke-width="0.4"/>
  </g>
</svg>
