<svg xmlns="http://www.w3.org/2000/svg" width="19.994" height="12.2" viewBox="0 0 19.994 12.2">
  <g id="list-text" transform="translate(-0.001 -80)">
    <g id="Group_12157" data-name="Group 12157" transform="translate(3.756 80)">
      <g id="Group_12156" data-name="Group 12156" transform="translate(0 0)">
        <path id="Path_25708" data-name="Path 25708" d="M109.925,80H97.43a1.109,1.109,0,1,0,0,2.2h12.5a1.109,1.109,0,1,0,0-2.2Z" transform="translate(-96.18 -80)" fill="#423314"/>
      </g>
    </g>
    <g id="Group_12159" data-name="Group 12159" transform="translate(0.001 80)">
      <g id="Group_12158" data-name="Group 12158" transform="translate(0 0)">
        <path id="Path_25709" data-name="Path 25709" d="M2.195,81.224a1.094,1.094,0,0,0-2.188,0,.931.931,0,0,0,0,.213.986.986,0,0,0,.06.208,1.269,1.269,0,0,0,.1.186A1,1,0,0,0,.308,82a.968.968,0,0,0,.164.131.891.891,0,0,0,.186.1.9.9,0,0,0,.23.082.96.96,0,0,0,.213,0A1.094,1.094,0,0,0,1.872,82a1,1,0,0,0,.137-.17,1.27,1.27,0,0,0,.1-.186,1.016,1.016,0,0,0,.082-.208A.931.931,0,0,0,2.195,81.224Z" transform="translate(-0.001 -80.135)" fill="#dfa32a"/>
      </g>
    </g>
    <g id="Group_12169" data-name="Group 12169" transform="translate(-0.007 -1)">
      <g id="Group_12161" data-name="Group 12161" transform="translate(0.008 86)">
        <g id="Group_12160" data-name="Group 12160" transform="translate(0 0)">
          <path id="Path_25710" data-name="Path 25710" d="M2.374,225.227a.938.938,0,0,0,0-.214.889.889,0,0,0-.082-.2,1.1,1.1,0,0,0-.1-.192.79.79,0,0,0-.137-.165,1.1,1.1,0,0,0-1.87.773,1.094,1.094,0,0,0,.181.609A1.052,1.052,0,0,0,.5,226a.8.8,0,0,0,.165.137.891.891,0,0,0,.186.1.931.931,0,0,0,.208.06.91.91,0,0,0,.214.022.932.932,0,0,0,.214,0,.89.89,0,0,0,.2-.06.916.916,0,0,0,.192-.1.8.8,0,0,0,.165-.137.8.8,0,0,0,.137-.165.881.881,0,0,0,.1-.186.928.928,0,0,0,.082-.23A.907.907,0,0,0,2.374,225.227Z" transform="translate(-0.18 -224.135)" fill="#dfa32a"/>
        </g>
      </g>
      <g id="Group_12165" data-name="Group 12165" transform="translate(3.757 86)">
        <g id="Group_12164" data-name="Group 12164" transform="translate(0 0)">
          <path id="Path_25712" data-name="Path 25712" d="M111.175,224H97.43a1.109,1.109,0,1,0,0,2.2h13.745a1.109,1.109,0,1,0,0-2.2Z" transform="translate(-96.18 -224)" fill="#423314"/>
        </g>
      </g>
    </g>
    <g id="Group_12168" data-name="Group 12168" transform="translate(0 -1)">
      <g id="Group_12163" data-name="Group 12163" transform="translate(0.008 91)">
        <g id="Group_12162" data-name="Group 12162" transform="translate(0 0)">
          <path id="Path_25711" data-name="Path 25711" d="M2.372,369.227a.942.942,0,0,0,0-.214.933.933,0,0,0-.082-.208,1.273,1.273,0,0,0-.1-.186.8.8,0,0,0-.137-.165,1.1,1.1,0,0,0-1.546,0,.8.8,0,0,0-.137.165,1.273,1.273,0,0,0-.1.186.9.9,0,0,0-.06.208.943.943,0,0,0-.022.214A1.1,1.1,0,0,0,.5,370a.8.8,0,0,0,.165.137.891.891,0,0,0,.186.1.935.935,0,0,0,.208.06.908.908,0,0,0,.214.022.932.932,0,0,0,.214,0,.888.888,0,0,0,.2-.06.916.916,0,0,0,.192-.1.8.8,0,0,0,.165-.137.8.8,0,0,0,.137-.164.879.879,0,0,0,.1-.186.931.931,0,0,0,.082-.23A.907.907,0,0,0,2.372,369.227Z" transform="translate(-0.178 -368.135)" fill="#dfa32a"/>
        </g>
      </g>
      <g id="Group_12167" data-name="Group 12167" transform="translate(3.757 91)">
        <g id="Group_12166" data-name="Group 12166" transform="translate(0 0)">
          <path id="Path_25713" data-name="Path 25713" d="M105.552,368H97.43a1.109,1.109,0,1,0,0,2.2h8.122a1.109,1.109,0,1,0,0-2.2Z" transform="translate(-96.18 -368)" fill="#423314"/>
        </g>
      </g>
    </g>
  </g>
</svg>
