<svg xmlns="http://www.w3.org/2000/svg" width="13.75" height="20" viewBox="0 0 13.75 20">
  <g id="Download" transform="translate(-5)">
    <path id="Path_25700" data-name="Path 25700" d="M18.125,13.75a.625.625,0,0,0,.625-.625v-10A3.125,3.125,0,0,0,15.625,0h-7.5A3.125,3.125,0,0,0,5,3.125v13.75A3.125,3.125,0,0,0,8.125,20h7.5a3.125,3.125,0,0,0,3.125-3.125v-1.25a.625.625,0,0,0-1.25,0v1.25a1.875,1.875,0,0,1-1.875,1.875h-7.5A1.875,1.875,0,0,1,6.25,16.875V3.125A1.875,1.875,0,0,1,7.5,1.362v.394A1.994,1.994,0,0,0,9.494,3.75h4.763A1.994,1.994,0,0,0,16.25,1.756V1.362A1.875,1.875,0,0,1,17.5,3.125v10a.625.625,0,0,0,.625.625ZM15,1.756a.744.744,0,0,1-.744.744H9.494a.744.744,0,0,1-.744-.744V1.25H15Z" fill="#423314"/>
    <g id="Group_12152" data-name="Group 12152" transform="translate(8.125 5.625)">
      <path id="Path_25701" data-name="Path 25701" d="M16.875,18a.625.625,0,0,0-.625.625v.625a.625.625,0,0,1-.625.625h-3.75a.625.625,0,0,1-.625-.625v-.625a.625.625,0,0,0-1.25,0v.625a1.875,1.875,0,0,0,1.875,1.875h3.75A1.875,1.875,0,0,0,17.5,19.25v-.625A.625.625,0,0,0,16.875,18Z" transform="translate(-10 -12.375)" fill="#dfa32a"/>
      <path id="Path_25702" data-name="Path 25702" d="M14.055,15.069a.625.625,0,0,0,.887,0l1.875-1.875a.628.628,0,0,0-.887-.887l-.806.813V9.625a.625.625,0,0,0-1.25,0v3.494l-.806-.812a.628.628,0,0,0-.887.887Z" transform="translate(-10.748 -9)" fill="#dfa32a"/>
    </g>
  </g>
</svg>
