<svg xmlns="http://www.w3.org/2000/svg" width="20.212" height="18.882" viewBox="0 0 20.212 18.882">
  <g id="caution-sign" transform="translate(-0.379 -15.962)">
    <g id="Group_12182" data-name="Group 12182" transform="translate(0.001 15.344)">
      <g id="Polygon_2" data-name="Polygon 2" transform="translate(0.484)" fill="#fff">
        <path d="M 16.6009693145752 18.75000381469727 L 3.399029970169067 18.75000381469727 C 2.414299964904785 18.75000381469727 1.528259992599487 18.24331283569336 1.028880000114441 17.39460372924805 C 0.5295000076293945 16.5458927154541 0.5168700218200684 15.52528381347656 0.9950900077819824 14.66448307037354 L 7.596069812774658 2.78273344039917 C 8.088089942932129 1.897087454795837 8.986837387084961 1.368253350257874 9.999971389770508 1.368253350257874 C 10.00003337860107 1.368253350257874 9.999938011169434 1.368253350257874 10 1.368253350257874 C 11.01319980621338 1.368253350257874 11.91187000274658 1.897023320198059 12.40392971038818 2.78273344039917 L 19.00490951538086 14.66448307037354 C 19.48312950134277 15.52528381347656 19.47050094604492 16.5458927154541 18.97112083435059 17.39460372924805 C 18.47174072265625 18.24331283569336 17.5856990814209 18.75000381469727 16.6009693145752 18.75000381469727 Z" stroke="none"/>
        <path d="M 9.999996185302734 2.118247985839844 C 9.316342353820801 2.118247985839844 8.6326904296875 2.461153030395508 8.251689910888672 3.146963119506836 L 1.65070915222168 15.02871322631836 C 0.9101200103759766 16.36177444458008 1.874059677124023 18.00000381469727 3.399030685424805 18.00000381469727 L 16.6009693145752 18.00000381469727 C 18.12594032287598 18.00000381469727 19.08987998962402 16.36177444458008 18.34927940368652 15.02871322631836 L 11.74831008911133 3.146963119506836 C 11.36730480194092 2.461153030395508 10.68365001678467 2.118247985839844 9.999996185302734 2.118247985839844 M 10 0.6182441711425781 C 11.27027988433838 0.6182441711425781 12.44262981414795 1.308063507080078 13.05953979492188 2.418493270874023 L 19.66052055358887 14.30025291442871 C 20.2691707611084 15.39581298828125 20.25309944152832 16.69476318359375 19.61751937866211 17.77494430541992 C 18.9819507598877 18.85512351989746 17.8542594909668 19.50000381469727 16.6009693145752 19.50000381469727 L 3.399030685424805 19.50000381469727 C 2.145740509033203 19.50000381469727 1.018060684204102 18.85512351989746 0.3824806213378906 17.77494430541992 C -0.2530994415283203 16.69477272033691 -0.2691802978515625 15.39581298828125 0.3394699096679688 14.30024337768555 L 6.940449714660645 2.418493270874023 C 7.557350158691406 1.308063507080078 8.729700088500977 0.6182441711425781 10 0.6182441711425781 Z" stroke="none" fill="#433315"/>
      </g>
      <g id="Group_12183" data-name="Group 12183" transform="translate(0.484 1)">
        <path id="Path_25750" data-name="Path 25750" d="M164.894,128.368v5.469a.948.948,0,1,0,1.9,0v-5.469a.948.948,0,1,0-1.9,0Z" transform="translate(-155.842 -122.549)" fill="#dfa32a"/>
        <path id="Path_25751" data-name="Path 25751" d="M165.058,265.364a1,1,0,1,0,1,1A1,1,0,0,0,165.058,265.364Z" transform="translate(-155.058 -251.931)" fill="#dfa32a"/>
      </g>
    </g>
  </g>
</svg>
