<svg xmlns="http://www.w3.org/2000/svg" width="20" height="17.333" viewBox="0 0 20 17.333">
  <g id="Layer_2" data-name="Layer 2" transform="translate(-1 -3)">
    <path id="Path_25650" data-name="Path 25650" d="M18.8,3H3.2A2.2,2.2,0,0,0,1,5.2V18.133a2.2,2.2,0,0,0,2.2,2.2H18.8a2.2,2.2,0,0,0,2.2-2.2V5.2A2.2,2.2,0,0,0,18.8,3Zm.867,15.133A.867.867,0,0,1,18.8,19H3.2a.867.867,0,0,1-.867-.867v-9.8H19.667ZM19.667,7H2.333V5.2A.867.867,0,0,1,3.2,4.333H18.8a.867.867,0,0,1,.867.867Z" fill="#433415"/>
    <circle id="Ellipse_415" data-name="Ellipse 415" cx="0.667" cy="0.667" r="0.667" transform="translate(3.667 5)" fill="#433415"/>
    <circle id="Ellipse_416" data-name="Ellipse 416" cx="0.667" cy="0.667" r="0.667" transform="translate(5.667 5)" fill="#433415"/>
    <circle id="Ellipse_417" data-name="Ellipse 417" cx="0.667" cy="0.667" r="0.667" transform="translate(7.667 5)" fill="#433415"/>
    <path id="Path_25651" data-name="Path 25651" d="M5.667,20.667H9A.667.667,0,0,0,9.667,20V14.667A.667.667,0,0,0,9,14H5.667A.667.667,0,0,0,5,14.667V20A.667.667,0,0,0,5.667,20.667Zm.667-5.333h2v4h-2Z" transform="translate(-1.333 -3.667)" fill="#dfa32a"/>
    <path id="Path_25652" data-name="Path 25652" d="M14.667,15.333H22A.667.667,0,0,0,22,14H14.667a.667.667,0,0,0,0,1.333Z" transform="translate(-4.333 -3.667)" fill="#433415"/>
    <path id="Path_25653" data-name="Path 25653" d="M14.667,19.333H22A.667.667,0,0,0,22,18H14.667a.667.667,0,0,0,0,1.333Z" transform="translate(-4.333 -5)" fill="#433415"/>
    <path id="Path_25654" data-name="Path 25654" d="M14.667,23.333h4a.667.667,0,1,0,0-1.333h-4a.667.667,0,0,0,0,1.333Z" transform="translate(-4.333 -6.333)" fill="#433415"/>
  </g>
</svg>
