<svg xmlns="http://www.w3.org/2000/svg" width="15.675" height="20" viewBox="0 0 15.675 20">
  <g id="Pin" transform="translate(-5.811 -3.001)">
    <path id="Path_25714" data-name="Path 25714" d="M20.608,7.218a7.692,7.692,0,0,0-6.086-4.174,8.742,8.742,0,0,0-1.745,0A7.7,7.7,0,0,0,6.69,7.218a8.313,8.313,0,0,0,1.139,9.149l5.225,6.353a.769.769,0,0,0,1.188,0l5.225-6.353A8.312,8.312,0,0,0,20.608,7.218ZM18.28,15.39,13.649,21.02,9.018,15.39a6.868,6.868,0,0,1-.967-7.454,6.179,6.179,0,0,1,4.882-3.362,7.047,7.047,0,0,1,.716-.035,6.949,6.949,0,0,1,.717.036,6.178,6.178,0,0,1,4.881,3.361,6.868,6.868,0,0,1-.967,7.454Z" transform="translate(0)" fill="#423314"/>
    <g id="aim" transform="translate(9.226 6.27)">
      <path id="Path_25733" data-name="Path 25733" d="M5.528,9.306A3.778,3.778,0,1,1,9.306,5.528,3.782,3.782,0,0,1,5.528,9.306Zm0-6.819A3.041,3.041,0,1,0,8.569,5.528,3.044,3.044,0,0,0,5.528,2.487Z" transform="translate(-1.105 -1.105)" fill="#dfa32a" stroke="#dda12a" stroke-width="0.2"/>
      <path id="Path_25734" data-name="Path 25734" d="M11.369,2.027A.369.369,0,0,1,11,1.659V.369a.369.369,0,1,1,.737,0v1.29A.369.369,0,0,1,11.369,2.027Z" transform="translate(-6.946)" fill="#dfa32a" stroke="#dda12a" stroke-width="0.2"/>
      <path id="Path_25735" data-name="Path 25735" d="M20.159,11.737h-1.29a.369.369,0,1,1,0-.737h1.29a.369.369,0,1,1,0,.737Z" transform="translate(-11.681 -6.946)" fill="#dfa32a" stroke="#dda12a" stroke-width="0.2"/>
      <path id="Path_25736" data-name="Path 25736" d="M11.369,20.527A.369.369,0,0,1,11,20.159v-1.29a.369.369,0,1,1,.737,0v1.29A.369.369,0,0,1,11.369,20.527Z" transform="translate(-6.946 -11.681)" fill="#dfa32a" stroke="#dda12a" stroke-width="0.2"/>
      <path id="Path_25737" data-name="Path 25737" d="M1.659,11.737H.369a.369.369,0,1,1,0-.737h1.29a.369.369,0,1,1,0,.737Z" transform="translate(0 -6.946)" fill="#dfa32a" stroke="#dda12a" stroke-width="0.2"/>
      <path id="Path_25738" data-name="Path 25738" d="M10.106,11.211a1.106,1.106,0,1,1,1.106-1.106A1.107,1.107,0,0,1,10.106,11.211Zm0-1.474a.369.369,0,1,0,.369.369A.369.369,0,0,0,10.106,9.737Z" transform="translate(-5.683 -5.683)" fill="#dfa32a" stroke="#dda12a" stroke-width="0.1"/>
    </g>
  </g>
</svg>
